<?xml version="1.0" standalone="no"?>
<!DOCTYPE svg ><svg t="1698742420056"
  class="icon" viewBox="0 0 1024 1024" version="1.1" xmlns="http://www.w3.org/2000/svg" p-id="5977"
  xmlns:xlink="http://www.w3.org/1999/xlink" width="200" height="200">
  <path d="M512 191.877378m-95.938689 0a95.938689 95.938689 0 1 0 191.877378 0 95.938689 95.938689 0 1 0-191.877378 0Z"
    fill="#2c2c2c" p-id="5978"></path>
  <path
    d="M895.754757 639.591261a31.979563 31.979563 0 0 0-31.979563-31.979563h-139.302977L583.634221 297.793691A127.886273 127.886273 0 0 0 639.918252 191.877378c0-59.418028-40.933841-109.05031-95.938689-123.377154V31.979563a31.979563 31.979563 0 1 0-63.959126 0v36.520661c-55.004848 14.294865-95.938689 63.959126-95.938689 123.377154 0 44.003879 22.353715 82.891027 56.284031 105.916313L299.527783 607.611698H160.224806a31.979563 31.979563 0 1 0 0 63.959126h110.233554L131.123404 978.126916a31.979563 31.979563 0 1 0 58.202805 26.479078L340.71746 671.570824H480.020437v36.552641a31.979563 31.979563 0 1 0 63.959126 0V671.570824h139.302977l151.391251 333.03517a31.947583 31.947583 0 1 0 58.202805-26.479078L753.54164 671.570824H863.775194a31.979563 31.979563 0 0 0 31.979563-31.979563zM512 127.918252c35.273458 0 63.959126 28.685668 63.959126 63.959126s-28.685668 63.959126-63.959126 63.959126-63.959126-28.685668-63.959126-63.959126 28.685668-63.959126 63.959126-63.959126z m31.979563 479.693446v-36.55264a31.979563 31.979563 0 1 0-63.959126 0V607.611698h-110.233554l131.308086-288.903373c3.64567 0.319796 7.163422 1.087305 10.905031 1.087306s7.259361-0.799489 10.873051-1.087306L654.245096 607.611698H543.979563z"
    p-id="5979"></path>
</svg>