<svg t="1698732215853" class="icon" viewBox="0 0 1024 1024" version="1.1" p-id="4955" width="200" height="200">
  <path d="M512 0c247.424 0 448 186.496 448 416.512 0 108.992-44.992 208.192-118.656 282.432l-12.544 12.16c-60.992 56.704-99.84 134.272-116.416 232.832a96 96 0 0 1-85.952 79.68L617.728 1024H406.272a96 96 0 0 1-94.72-80c-15.424-92.032-50.304-165.76-104.448-221.312l-11.904-11.584C114.176 635.712 64 531.584 64 416.512 64 186.496 264.576 0 512 0z m0 64C298.88 64 128 222.912 128 416.512c0 88.32 35.52 171.52 98.624 235.84l12.16 11.84c71.872 66.816 117.12 157.312 135.936 269.12a32 32 0 0 0 25.792 26.176l5.76 0.512h211.456a32 32 0 0 0 31.552-26.688c17.6-104.32 58.176-190.08 121.92-255.424l14.016-13.696C855.936 598.464 896 510.336 896 416.512 896 222.912 725.12 64 512 64z m64 128l-28.8 192H640l-192 256 28.736-192H384l192-256z" p-id="4956">
  </path>
</svg>